<?xml version="1.0" encoding="iso-8859-1"?>
<!-- Uploaded to: SVG Repo, www.svgrepo.com, Generator: SVG Repo Mixer Tools -->
<svg version="1.1" id="Layer_1" xmlns="http://www.w3.org/2000/svg" xmlns:xlink="http://www.w3.org/1999/xlink" 
	 viewBox="0 0 511.99 511.99" xml:space="preserve">
<polygon style="fill:#E6E9ED;" points="310.432,373.088 329.759,181.216 420.929,181.122 461.022,241.231 501.318,281.512 
	501.131,373.088 "/>
<polygon style="fill:#4FC2E9;" points="456.491,234.434 420.929,181.122 329.759,181.216 324.399,234.434 "/>
<path style="fill:#E6E9ED;" d="M469.304,234.434l-42.672-63.983l-106.514,0.109l-21.468,213.2h213.121l0.219-106.654
	L469.304,234.434z M490.475,362.432H322.227l17.188-170.559l75.812-0.078l36.343,54.483l1.172,1.75l1.484,1.5l36.422,36.39
	L490.475,362.432z"/>
<path style="fill:#CCD1D9;" d="M319.977,85.124H21.343C9.562,85.124,0,94.671,0,106.452v255.979
	c0,11.781,9.547,21.328,21.328,21.328h298.65c11.781,0,21.328-9.547,21.328-21.328V106.452
	C341.306,94.671,331.759,85.124,319.977,85.124z"/>
<g>
	<circle style="fill:#434A54;" cx="415.975" cy="373.536" r="53.33"/>
	<circle style="fill:#434A54;" cx="96.015" cy="373.536" r="53.33"/>
</g>
<g>
	<path style="fill:#F5F7FA;" d="M405.32,373.541c0,5.891,4.766,10.656,10.656,10.656s10.671-4.766,10.671-10.656
		s-4.781-10.672-10.671-10.672C410.086,362.869,405.32,367.65,405.32,373.541z"/>
	<path style="fill:#F5F7FA;" d="M85.342,373.541c0,5.891,4.781,10.656,10.671,10.656s10.656-4.766,10.656-10.656
		s-4.766-10.672-10.656-10.672S85.342,367.65,85.342,373.541z"/>
</g>
<g>
	<path style="fill:#656D78;" d="M42.686,277.105c-5.906,0-10.671,4.766-10.671,10.656v21.342c0,5.891,4.766,10.656,10.671,10.656
		c5.891,0,10.656-4.766,10.656-10.656v-21.342C53.343,281.871,48.577,277.105,42.686,277.105z"/>
	<path style="fill:#656D78;" d="M85.342,277.105c-5.891,0-10.672,4.766-10.672,10.656v21.342c0,5.891,4.781,10.656,10.672,10.656
		c5.89,0,10.671-4.766,10.671-10.656v-21.342C96.014,281.871,91.232,277.105,85.342,277.105z"/>
	<path style="fill:#656D78;" d="M127.997,277.105c-5.875,0-10.656,4.766-10.656,10.656v21.342c0,5.891,4.781,10.656,10.656,10.656
		c5.906,0,10.672-4.766,10.672-10.656v-21.342C138.669,281.871,133.904,277.105,127.997,277.105z"/>
	<path style="fill:#656D78;" d="M170.668,277.105c-5.891,0-10.671,4.766-10.671,10.656v21.342c0,5.891,4.781,10.656,10.671,10.656
		s10.672-4.766,10.672-10.656v-21.342C181.34,281.871,176.559,277.105,170.668,277.105z"/>
	<path style="fill:#656D78;" d="M213.34,277.105c-5.906,0-10.672,4.766-10.672,10.656v21.342c0,5.891,4.766,10.656,10.672,10.656
		c5.89,0,10.656-4.766,10.656-10.656v-21.342C223.995,281.871,219.23,277.105,213.34,277.105z"/>
	<path style="fill:#656D78;" d="M255.995,277.105c-5.891,0-10.672,4.766-10.672,10.656v21.342c0,5.891,4.781,10.656,10.672,10.656
		s10.672-4.766,10.672-10.656v-21.342C266.667,281.871,261.886,277.105,255.995,277.105z"/>
	<path style="fill:#656D78;" d="M298.65,277.105c-5.875,0-10.655,4.766-10.655,10.656v21.342c0,5.891,4.78,10.656,10.655,10.656
		c5.906,0,10.672-4.766,10.672-10.656v-21.342C309.322,281.871,304.557,277.105,298.65,277.105z"/>
</g>
<rect x="362.505" y="191.776" style="fill:#3BAFDA;" width="21.328" height="42.655"/>
<path style="fill:#5D9CEC;" d="M319.977,85.124H21.343C9.562,85.124,0,94.671,0,106.452v191.981h341.306V106.452
	C341.306,94.671,331.759,85.124,319.977,85.124z"/>
</svg>